<?xml version="1.0" encoding="UTF-8"?>
<svg id="Calque_2" data-name="Calque 2" xmlns="http://www.w3.org/2000/svg" viewBox="0 0 109.76 18.26">
  <defs>
    <style>
      .cls-1 {
        fill: #fff;
      }

      .cls-2 {
        fill: #f0f;
      }
    </style>
  </defs>
  <g id="Calque_1-2" data-name="Calque 1">
    <g>
      <path class="cls-1" d="M12.62,7.52V.86h2.16c.53,0,1,.09,1.4.28.4.19.73.44.99.76.26.32.46.67.59,1.07.13.4.2.8.2,1.21s-.07.82-.2,1.21c-.13.4-.33.75-.59,1.07-.26.32-.59.57-.99.76-.4.19-.86.28-1.4.28h-2.16ZM14.74,1.64h-1.24v5.11h1.24c.39,0,.73-.07,1.02-.22.29-.14.53-.34.73-.58.19-.24.34-.52.44-.82.1-.31.14-.62.14-.94s-.05-.63-.14-.94c-.1-.31-.24-.58-.44-.82-.2-.24-.44-.44-.73-.58-.29-.14-.63-.22-1.02-.22Z"/>
      <path class="cls-1" d="M23.77,7.61c-.47,0-.85-.15-1.13-.44-.28-.29-.42-.7-.42-1.22v-3.2h.85v3.15c0,.31.09.55.26.72.17.17.4.25.68.25s.52-.08.69-.22c.17-.15.3-.34.38-.58.08-.23.12-.47.12-.72v-2.6h.85v4.77h-.85v-.68h-.05c-.04.07-.1.17-.21.29s-.25.23-.43.33c-.19.1-.43.15-.73.15Z"/>
      <path class="cls-1" d="M32.7,7.61c-.39,0-.73-.07-1.03-.21-.29-.14-.54-.33-.73-.57s-.34-.5-.44-.8-.15-.59-.15-.9.05-.6.14-.9c.1-.29.24-.56.44-.8.19-.24.44-.43.73-.57.29-.14.64-.21,1.04-.21s.7.06.95.17c.25.11.46.26.61.43.15.17.27.34.34.51.07.17.14.37.18.6h-.83c-.06-.2-.13-.36-.22-.49-.08-.13-.21-.24-.38-.34-.17-.1-.39-.15-.67-.15-.33,0-.61.08-.83.25s-.39.38-.5.64c-.11.26-.17.55-.17.85s.06.58.17.85c.11.26.28.48.5.64s.5.25.83.25c.28,0,.5-.05.67-.15.17-.1.29-.21.38-.34s.16-.29.22-.49h.83c-.05.23-.11.43-.18.6-.08.17-.19.34-.34.51-.15.17-.36.31-.61.43-.25.11-.57.17-.95.17Z"/>
      <path class="cls-1" d="M36.39,5.07v-.72h3.35v.72h-3.35Z"/>
      <path class="cls-1" d="M43.75,7.61c-.38,0-.71-.05-.99-.15-.27-.1-.5-.23-.68-.39-.18-.16-.32-.33-.43-.5-.11-.17-.19-.34-.24-.5-.05-.16-.1-.34-.13-.54h.9c.04.17.08.32.14.44s.14.25.26.38c.11.13.27.24.46.32.19.08.43.13.73.13.44,0,.79-.11,1.05-.32.26-.21.39-.49.39-.83,0-.29-.1-.52-.29-.68-.19-.16-.47-.29-.83-.38l-.88-.22c-.31-.08-.6-.19-.87-.33-.27-.14-.48-.33-.64-.56-.16-.23-.24-.52-.24-.87,0-.39.1-.72.29-1,.19-.28.45-.49.78-.63.33-.15.71-.22,1.12-.22s.75.06,1.02.19c.27.13.49.28.65.46.16.18.28.37.36.55.08.18.14.4.19.65h-.86c-.05-.22-.12-.39-.21-.54s-.23-.27-.41-.37c-.19-.11-.44-.16-.76-.16-.43,0-.76.1-.98.31s-.33.44-.33.7c0,.24.09.43.26.58.17.15.41.26.72.34l.95.23c.34.08.65.21.93.37.28.16.5.36.66.61s.24.55.24.91-.09.69-.27,1c-.18.31-.44.55-.78.73-.34.18-.77.27-1.28.27Z"/>
      <path class="cls-1" d="M49.4,7.61c-.51,0-.94-.12-1.29-.36-.35-.24-.61-.54-.79-.92-.18-.38-.27-.78-.27-1.2s.09-.83.27-1.2c.18-.38.44-.68.79-.92.35-.24.78-.36,1.29-.36s.94.12,1.29.36c.35.24.61.54.79.92.18.38.27.78.27,1.2s-.09.82-.27,1.2c-.18.38-.44.69-.79.92s-.78.36-1.29.36ZM49.4,6.87c.32,0,.6-.08.81-.25.22-.17.38-.38.5-.64.11-.26.17-.54.17-.84s-.06-.58-.17-.84c-.11-.26-.28-.47-.5-.64-.22-.16-.49-.25-.81-.25s-.59.08-.81.25c-.22.17-.39.38-.5.64-.11.26-.17.54-.17.84s.06.57.17.84c.11.26.28.48.5.64s.49.25.81.25Z"/>
      <path class="cls-1" d="M52.92,7.52V2.75h.86v.69h.05c.04-.07.11-.17.21-.3.1-.13.24-.24.43-.34.19-.1.42-.15.7-.15.35,0,.65.08.89.24.25.16.43.37.56.64.13.27.19.57.19.91v3.07h-.86v-3.02c0-.32-.09-.58-.27-.79-.18-.21-.43-.31-.77-.31-.27,0-.49.07-.66.2-.17.13-.29.31-.37.53s-.12.45-.12.7v2.69h-.86Z"/>
      <path class="cls-1" d="M60.24,7.52V.86h.79l3.47,5.07V.86h.88v6.66h-.79l-3.47-5.06v5.06h-.88Z"/>
      <path class="cls-1" d="M69.03,9.41c-.4,0-.73-.05-.99-.16-.26-.11-.48-.24-.63-.4-.16-.16-.28-.32-.36-.47-.08-.16-.14-.34-.19-.55h.86c.06.17.13.31.22.41.09.11.22.2.39.29s.41.13.7.13c.35,0,.62-.07.82-.2s.34-.31.43-.53c.09-.22.13-.44.13-.68v-.55h-.04c-.06.1-.15.22-.28.35s-.3.24-.51.33-.47.14-.77.14c-.36,0-.68-.07-.95-.21-.27-.14-.49-.32-.67-.56-.18-.23-.31-.49-.4-.78s-.13-.58-.13-.88.04-.59.13-.88.22-.55.4-.78c.18-.23.4-.42.67-.56.27-.14.58-.21.95-.21.31,0,.56.05.77.14s.38.2.51.33.22.24.28.35h.04v-.73h.86v4.49c0,.67-.19,1.19-.58,1.58-.39.39-.94.58-1.65.58ZM68.96,6.79c.32,0,.58-.08.8-.25s.37-.38.48-.63c.1-.26.16-.53.16-.82s-.05-.56-.16-.82c-.11-.26-.26-.47-.48-.63-.21-.16-.48-.24-.8-.24s-.58.08-.8.24c-.22.16-.38.37-.48.63-.1.26-.16.54-.16.82s.05.56.16.82c.11.26.27.47.48.63s.48.25.8.25Z"/>
      <path class="cls-1" d="M77.21,7.61c-.47,0-.85-.15-1.13-.44s-.42-.7-.42-1.22v-3.2h.86v3.15c0,.31.08.55.26.72s.4.25.68.25.52-.08.69-.22c.17-.15.3-.34.38-.58s.12-.47.12-.72v-2.6h.85v4.77h-.85v-.68h-.05c-.04.07-.1.17-.21.29-.1.12-.25.23-.43.33-.19.1-.43.15-.73.15Z"/>
      <path class="cls-1" d="M84.06,9.28c-.14,0-.3-.01-.49-.04v-.73c.2.02.35.03.47.03.35,0,.64-.07.87-.22.23-.15.42-.39.57-.72l-1.84-4.84h.89l1.38,3.73,1.39-3.73h.9l-1.84,4.78c-.23.6-.54,1.04-.9,1.32-.37.28-.83.42-1.37.42Z"/>
      <path class="cls-1" d="M90.98,7.61c-.39,0-.73-.07-1.01-.21-.29-.14-.52-.33-.7-.57-.18-.24-.32-.5-.41-.8s-.13-.59-.13-.9.04-.6.13-.89c.09-.29.22-.56.4-.8.18-.24.41-.43.69-.57.28-.14.61-.21.99-.21.41,0,.77.09,1.08.28.31.19.56.46.74.83s.27.83.27,1.38v.25h-3.45c.02.27.08.52.19.74.11.22.27.41.47.54.2.13.45.2.73.2.25,0,.45-.04.6-.12s.27-.18.36-.28c.09-.11.17-.24.23-.41h.8c-.06.21-.13.39-.21.54s-.19.3-.34.45c-.15.15-.34.28-.58.39-.23.1-.53.16-.87.16ZM89.59,4.73h2.6c-.01-.31-.08-.57-.2-.76-.12-.2-.27-.34-.46-.44-.19-.1-.38-.14-.59-.14-.38,0-.69.12-.93.36s-.38.57-.42.98Z"/>
      <path class="cls-1" d="M94.2,7.52V2.75h.86v.69h.05c.04-.07.11-.17.21-.3.1-.13.24-.24.43-.34.19-.1.42-.15.7-.15.35,0,.65.08.89.24.25.16.43.37.56.64.13.27.19.57.19.91v3.07h-.86v-3.02c0-.32-.09-.58-.27-.79-.18-.21-.43-.31-.77-.31-.27,0-.49.07-.66.2-.17.13-.29.31-.37.53s-.12.45-.12.7v2.69h-.86Z"/>
      <path class="cls-1" d="M7.52,17.08v-4.44h1.39c.35,0,.66.06.92.19.26.13.48.29.66.51.17.21.31.45.39.71s.13.53.13.81-.04.55-.13.81-.22.5-.39.71c-.17.21-.39.38-.66.51-.26.13-.57.19-.92.19h-1.39ZM8.89,13.06h-.91v3.61h.91c.28,0,.52-.05.72-.15.21-.1.38-.24.52-.41.14-.17.24-.37.31-.58s.1-.44.1-.66-.03-.44-.1-.66c-.07-.22-.17-.41-.31-.58-.14-.17-.31-.31-.52-.41-.21-.1-.45-.15-.72-.15Z"/>
      <path class="cls-1" d="M13.22,17.14c-.26,0-.48-.05-.67-.14s-.34-.22-.46-.38c-.12-.16-.21-.34-.27-.53-.06-.2-.09-.39-.09-.59s.03-.4.09-.59c.06-.2.15-.37.27-.53.12-.16.27-.29.45-.38.18-.09.4-.14.65-.14s.5.06.71.19c.21.12.37.31.49.55.12.24.18.54.18.91v.13h-2.37c0,.2.05.39.14.56.08.17.2.31.35.41.15.1.33.16.54.16.18,0,.32-.03.44-.09.12-.06.21-.13.27-.22.06-.08.12-.18.17-.3h.43c-.04.13-.09.25-.14.35-.05.1-.13.2-.22.3-.1.1-.22.18-.38.25-.15.07-.34.1-.56.1ZM12.2,15.26h1.91c-.01-.24-.06-.44-.15-.59-.09-.15-.2-.26-.33-.33-.14-.07-.28-.1-.44-.1-.28,0-.51.09-.69.28-.18.19-.28.43-.31.74ZM13.4,13.41h-.4s.52-1.03.52-1.03h.47l-.59,1.03Z"/>
      <path class="cls-1" d="M16.26,17.08l-1.23-3.18h.47l1.01,2.63.99-2.63h.47l-1.23,3.18h-.48Z"/>
      <path class="cls-1" d="M19.91,17.14c-.26,0-.48-.05-.67-.14s-.34-.22-.46-.38-.21-.34-.27-.53-.09-.39-.09-.59.03-.4.09-.59c.06-.2.15-.37.27-.53.12-.16.27-.29.45-.38.18-.09.4-.14.65-.14s.5.06.71.19c.21.12.37.31.49.55s.18.54.18.91v.13h-2.37c0,.2.05.39.13.56s.2.31.35.41c.15.1.33.16.54.16.18,0,.32-.03.44-.09.12-.06.21-.13.27-.22.06-.08.12-.18.17-.3h.43c-.04.13-.09.25-.14.35-.05.1-.13.2-.23.3-.1.1-.22.18-.38.25-.15.07-.34.1-.56.1ZM18.89,15.26h1.91c-.01-.24-.06-.44-.15-.59-.09-.15-.2-.26-.33-.33-.14-.07-.28-.1-.44-.1-.28,0-.51.09-.69.28-.18.19-.28.43-.31.74Z"/>
      <path class="cls-1" d="M22.11,17.08v-4.56h.45v4.56h-.45Z"/>
      <path class="cls-1" d="M24.96,17.14c-.25,0-.47-.05-.66-.14s-.35-.22-.48-.37c-.13-.16-.23-.33-.29-.53s-.1-.4-.1-.61.03-.42.1-.61.16-.37.29-.53c.13-.16.29-.28.48-.37.19-.09.41-.14.66-.14s.47.05.67.14c.19.09.35.22.48.37s.23.33.29.53c.07.2.1.4.1.61s-.03.41-.1.61c-.07.2-.16.38-.29.53s-.29.28-.48.37c-.19.09-.41.14-.67.14ZM24.96,16.74c.24,0,.43-.06.59-.18s.28-.27.36-.46c.08-.19.12-.39.12-.6s-.04-.41-.12-.6c-.08-.19-.2-.34-.36-.46s-.36-.18-.59-.18-.43.06-.59.18c-.16.12-.28.28-.36.46-.08.19-.12.39-.12.6s.04.41.12.6c.08.19.2.34.36.46.16.12.36.18.59.18Z"/>
      <path class="cls-1" d="M27.36,18.26v-4.36h.45v.57h.03c.04-.08.11-.16.2-.26s.2-.18.34-.26c.14-.07.33-.11.55-.11.24,0,.45.05.63.14.18.09.33.22.45.38.12.16.21.34.27.53.06.2.09.4.09.6s-.03.4-.09.6c-.06.2-.15.37-.27.53-.12.16-.27.28-.45.38-.18.09-.39.14-.63.14-.22,0-.4-.04-.55-.11-.14-.07-.26-.16-.34-.26-.09-.1-.15-.19-.2-.26h-.03v1.75h-.45ZM27.82,15.5c0,.21.04.41.11.6.08.19.19.35.35.47s.35.19.58.19.43-.06.58-.19.27-.28.35-.47.12-.39.12-.6-.04-.41-.12-.6c-.08-.19-.19-.35-.35-.47s-.35-.19-.58-.19-.43.06-.58.19-.27.28-.35.47c-.08.19-.11.39-.11.6Z"/>
      <path class="cls-1" d="M31.22,18.26v-4.36h.45v.57h.03c.04-.08.11-.16.2-.26s.2-.18.34-.26c.14-.07.33-.11.55-.11.24,0,.45.05.63.14.18.09.33.22.45.38.12.16.21.34.27.53.06.2.09.4.09.6s-.03.4-.09.6c-.06.2-.15.37-.27.53-.12.16-.27.28-.45.38-.18.09-.39.14-.63.14-.22,0-.4-.04-.55-.11-.14-.07-.26-.16-.34-.26-.09-.1-.15-.19-.2-.26h-.03v1.75h-.45ZM31.68,15.5c0,.21.04.41.11.6.08.19.19.35.35.47s.35.19.58.19.43-.06.58-.19.27-.28.35-.47.12-.39.12-.6-.04-.41-.12-.6c-.08-.19-.19-.35-.35-.47s-.35-.19-.58-.19-.43.06-.58.19-.27.28-.35.47c-.08.19-.11.39-.11.6Z"/>
      <path class="cls-1" d="M36.43,17.14c-.26,0-.48-.05-.67-.14-.19-.09-.34-.22-.46-.38-.12-.16-.21-.34-.27-.53s-.09-.39-.09-.59.03-.4.09-.59c.06-.2.15-.37.27-.53.12-.16.27-.29.45-.38.18-.09.4-.14.65-.14s.5.06.71.19c.21.12.37.31.49.55.12.24.18.54.18.91v.13h-2.37c0,.2.05.39.13.56s.2.31.35.41c.15.1.33.16.54.16.18,0,.32-.03.44-.09.12-.06.21-.13.27-.22.06-.08.12-.18.17-.3h.43c-.04.13-.09.25-.14.35-.05.1-.13.2-.22.3-.1.1-.22.18-.38.25-.15.07-.34.1-.56.1ZM35.41,15.26h1.91c-.01-.24-.06-.44-.15-.59-.09-.15-.2-.26-.33-.33-.14-.07-.28-.1-.44-.1-.28,0-.51.09-.69.28-.18.19-.28.43-.31.74Z"/>
      <path class="cls-1" d="M39.62,17.14c-.32,0-.57-.1-.76-.31-.19-.2-.28-.49-.28-.85v-2.08h.45v2.06c0,.25.06.44.19.58s.29.2.51.2.38-.06.51-.17c.13-.11.22-.26.28-.43.06-.17.09-.35.09-.54v-1.7h.45v3.18h-.45v-.52h-.03c-.03.06-.08.13-.15.23-.07.09-.17.18-.3.25-.13.07-.3.11-.5.11Z"/>
      <path class="cls-1" d="M41.95,17.08v-3.18h.45v.41h.02c.06-.13.16-.24.29-.33.13-.09.32-.14.55-.14.08,0,.17,0,.29.02v.43c-.13-.02-.23-.02-.3-.02-.16,0-.31.03-.44.1-.13.07-.23.18-.31.34s-.11.37-.11.64v1.73h-.45Z"/>
      <path class="cls-1" d="M45.67,17.08v-4.44h2.81v.41h-2.35v1.61h2.06v.41h-2.06v2h-.46Z"/>
      <path class="cls-1" d="M50.36,17.14c-.32,0-.57-.1-.76-.31-.19-.2-.28-.49-.28-.85v-2.08h.45v2.06c0,.25.06.44.19.58s.29.2.51.2.38-.06.51-.17c.13-.11.22-.26.28-.43.06-.17.09-.35.09-.54v-1.7h.45v3.18h-.45v-.52h-.03c-.03.06-.08.13-.15.23-.07.09-.17.18-.3.25-.13.07-.3.11-.5.11Z"/>
      <path class="cls-1" d="M52.74,17.08v-4.56h.45v4.56h-.45Z"/>
      <path class="cls-1" d="M54.19,17.08v-4.56h.45v4.56h-.45Z"/>
      <path class="cls-1" d="M56.67,17.14c-.24,0-.44-.03-.59-.1-.15-.07-.28-.15-.37-.25-.09-.1-.16-.2-.2-.3-.04-.1-.07-.22-.1-.35h.46c.02.12.06.23.11.31.05.08.13.15.24.22.11.06.26.09.44.09.2,0,.37-.05.49-.16.12-.1.18-.23.18-.38s-.05-.26-.15-.34c-.1-.08-.23-.14-.39-.17l-.42-.1c-.16-.04-.31-.09-.44-.16-.13-.07-.24-.16-.32-.27s-.12-.25-.12-.42c0-.27.1-.49.29-.65s.45-.25.77-.25c.21,0,.39.03.53.09.14.06.25.14.33.23s.14.18.18.27.07.2.09.32h-.44c-.03-.11-.06-.2-.11-.27-.04-.07-.11-.13-.2-.19-.09-.05-.22-.08-.38-.08-.21,0-.36.05-.46.15-.1.1-.15.21-.15.34s.04.22.13.29.21.13.37.16l.43.1c.27.06.49.17.65.32s.25.35.25.6c0,.17-.04.33-.14.47-.09.14-.22.26-.38.34s-.37.13-.6.13Z"/>
      <path class="cls-1" d="M59.75,17.14c-.3,0-.52-.08-.67-.23s-.23-.37-.23-.64v-2h-.58v-.37h.58v-.8h.45v.8h.79v.37h-.79v2c0,.32.17.48.52.48.09,0,.21-.02.38-.05v.38c-.18.04-.33.05-.44.05Z"/>
      <path class="cls-1" d="M62.21,13.84c.22,0,.4.04.55.11.14.07.26.16.35.26s.15.19.19.26h.04v-.57h.44v3.18h-.44v-.57h-.04c-.04.08-.1.16-.19.26-.09.1-.2.18-.35.26-.14.07-.33.11-.55.11-.24,0-.45-.05-.63-.14-.18-.09-.33-.22-.45-.38-.12-.16-.21-.33-.27-.53s-.09-.4-.09-.6.03-.4.09-.6c.06-.2.15-.37.27-.53.12-.16.27-.28.45-.38.18-.09.39-.14.63-.14ZM62.27,14.23c-.24,0-.43.06-.59.19s-.27.28-.35.47c-.08.19-.11.39-.11.6s.04.41.11.6c.08.19.19.35.35.47s.35.19.59.19.42-.06.58-.19c.15-.12.27-.28.35-.47s.12-.39.12-.6-.04-.41-.12-.6c-.08-.19-.19-.35-.35-.47-.15-.12-.35-.19-.58-.19Z"/>
      <path class="cls-1" d="M66.11,17.14c-.26,0-.48-.05-.67-.14-.19-.09-.36-.22-.48-.38s-.22-.33-.29-.53c-.06-.2-.1-.4-.1-.6s.03-.4.1-.6c.06-.2.16-.37.29-.53.13-.16.29-.28.48-.38.19-.09.42-.14.68-.14s.45.04.62.11c.16.07.3.17.4.28.1.11.18.22.23.33.05.11.09.24.13.39h-.44c-.04-.14-.1-.26-.16-.36-.06-.09-.15-.18-.28-.25s-.29-.11-.49-.11c-.24,0-.45.06-.61.18s-.28.27-.37.46c-.08.19-.12.39-.12.61s.04.41.12.61c.08.19.2.35.37.47s.37.18.61.18c.2,0,.37-.04.49-.11s.22-.16.28-.25c.06-.09.12-.21.16-.36h.44c-.03.15-.07.28-.13.39-.05.11-.13.22-.23.33-.1.11-.23.21-.4.28-.16.07-.37.11-.62.11Z"/>
      <path class="cls-1" d="M68.34,17.08v-4.56h.45v2.69l1.38-1.31h.6l-1.53,1.43,1.57,1.75h-.58l-1.44-1.6v1.6h-.45Z"/>
      <path class="cls-1" d="M73.16,17.14c-.13,0-.31-.01-.52-.04v-.41c.21.02.37.04.47.04.32,0,.57-.08.75-.25.18-.16.27-.43.27-.8v-3.04h.46v3.04c0,.46-.12.82-.37,1.08-.25.26-.6.39-1.07.39Z"/>
      <path class="cls-1" d="M76.89,13.84c.22,0,.4.04.55.11.14.07.26.16.35.26s.15.19.19.26h.04v-.57h.44v3.18h-.44v-.57h-.04c-.04.08-.1.16-.19.26-.09.1-.2.18-.35.26-.14.07-.33.11-.55.11-.24,0-.45-.05-.63-.14-.18-.09-.33-.22-.45-.38-.12-.16-.21-.33-.27-.53s-.09-.4-.09-.6.03-.4.09-.6c.06-.2.15-.37.27-.53.12-.16.27-.28.45-.38.18-.09.39-.14.63-.14ZM76.96,14.23c-.24,0-.43.06-.59.19s-.27.28-.35.47c-.08.19-.11.39-.11.6s.04.41.11.6c.08.19.19.35.35.47s.35.19.59.19.42-.06.58-.19c.15-.12.27-.28.35-.47s.12-.39.12-.6-.04-.41-.12-.6c-.08-.19-.19-.35-.35-.47-.15-.12-.35-.19-.58-.19Z"/>
      <path class="cls-1" d="M80.24,17.08l-1.23-3.18h.47l1.01,2.63.99-2.63h.47l-1.23,3.18h-.48Z"/>
      <path class="cls-1" d="M83.84,13.84c.22,0,.4.04.55.11.14.07.26.16.35.26s.15.19.19.26h.04v-.57h.44v3.18h-.44v-.57h-.04c-.04.08-.1.16-.19.26-.09.1-.2.18-.35.26-.14.07-.33.11-.55.11-.24,0-.45-.05-.63-.14-.18-.09-.33-.22-.45-.38-.12-.16-.21-.33-.27-.53s-.09-.4-.09-.6.03-.4.09-.6c.06-.2.15-.37.27-.53.12-.16.27-.28.45-.38.18-.09.39-.14.63-.14ZM83.9,14.23c-.24,0-.43.06-.59.19s-.27.28-.35.47c-.08.19-.11.39-.11.6s.04.41.11.6c.08.19.19.35.35.47s.35.19.59.19.42-.06.58-.19c.15-.12.27-.28.35-.47s.12-.39.12-.6-.04-.41-.12-.6c-.08-.19-.19-.35-.35-.47-.15-.12-.35-.19-.58-.19Z"/>
      <path class="cls-1" d="M87.38,17.14c-.24,0-.44-.03-.59-.1-.15-.07-.28-.15-.37-.25-.09-.1-.16-.2-.2-.3-.04-.1-.07-.22-.1-.35h.46c.02.12.06.23.11.31.05.08.13.15.24.22.11.06.26.09.44.09.2,0,.37-.05.49-.16.12-.1.18-.23.18-.38s-.05-.26-.15-.34c-.1-.08-.23-.14-.39-.17l-.42-.1c-.16-.04-.31-.09-.44-.16-.13-.07-.24-.16-.32-.27s-.12-.25-.12-.42c0-.27.1-.49.29-.65s.45-.25.77-.25c.21,0,.39.03.53.09.14.06.25.14.33.23s.14.18.18.27.07.2.09.32h-.44c-.03-.11-.06-.2-.11-.27-.04-.07-.11-.13-.2-.19-.09-.05-.22-.08-.38-.08-.21,0-.36.05-.46.15-.1.1-.15.21-.15.34s.04.22.13.29.21.13.37.16l.43.1c.27.06.49.17.65.32s.25.35.25.6c0,.17-.04.33-.14.47-.09.14-.22.26-.38.34s-.37.13-.6.13Z"/>
      <path class="cls-1" d="M90.67,17.14c-.26,0-.48-.05-.67-.14-.19-.09-.36-.22-.48-.38s-.22-.33-.29-.53c-.06-.2-.1-.4-.1-.6s.03-.4.1-.6c.06-.2.16-.37.29-.53.13-.16.29-.28.48-.38.19-.09.42-.14.68-.14s.45.04.62.11c.16.07.3.17.4.28.1.11.18.22.23.33.05.11.09.24.13.39h-.44c-.04-.14-.1-.26-.16-.36-.06-.09-.15-.18-.28-.25s-.29-.11-.49-.11c-.24,0-.45.06-.61.18s-.28.27-.37.46c-.08.19-.12.39-.12.61s.04.41.12.61c.08.19.2.35.37.47s.37.18.61.18c.2,0,.37-.04.49-.11s.22-.16.28-.25c.06-.09.12-.21.16-.36h.44c-.03.15-.07.28-.13.39-.05.11-.13.22-.23.33-.1.11-.23.21-.4.28-.16.07-.37.11-.62.11Z"/>
      <path class="cls-1" d="M92.85,17.08v-3.18h.45v.41h.02c.06-.13.16-.24.29-.33.13-.09.32-.14.55-.14.08,0,.17,0,.29.02v.43c-.13-.02-.23-.02-.3-.02-.16,0-.31.03-.44.1-.13.07-.23.18-.31.34s-.11.37-.11.64v1.73h-.45Z"/>
      <path class="cls-1" d="M95.57,13.29c-.09,0-.17-.03-.23-.1-.06-.06-.09-.14-.09-.22s.03-.16.09-.22c.06-.06.14-.09.23-.09s.16.03.22.09c.06.06.09.14.09.22s-.03.16-.09.23-.14.09-.22.09ZM95.34,17.08v-3.18h.45v3.18h-.45Z"/>
      <path class="cls-1" d="M96.8,18.26v-4.36h.45v.57h.03c.04-.08.11-.16.2-.26s.2-.18.34-.26c.14-.07.33-.11.55-.11.24,0,.45.05.63.14.18.09.33.22.45.38.12.16.21.34.27.53.06.2.09.4.09.6s-.03.4-.09.6c-.06.2-.15.37-.27.53-.12.16-.27.28-.45.38-.18.09-.39.14-.63.14-.22,0-.4-.04-.55-.11-.14-.07-.26-.16-.34-.26-.09-.1-.15-.19-.2-.26h-.03v1.75h-.45ZM97.26,15.5c0,.21.04.41.11.6.08.19.19.35.35.47s.35.19.58.19.43-.06.58-.19.27-.28.35-.47.12-.39.12-.6-.04-.41-.12-.6c-.08-.19-.19-.35-.35-.47s-.35-.19-.58-.19-.43.06-.58.19-.27.28-.35.47c-.08.19-.11.39-.11.6Z"/>
      <path class="cls-1" d="M101.81,17.14c-.3,0-.52-.08-.67-.23s-.23-.37-.23-.64v-2h-.58v-.37h.58v-.8h.45v.8h.79v.37h-.79v2c0,.32.17.48.52.48.09,0,.21-.02.38-.05v.38c-.18.04-.33.05-.44.05Z"/>
    </g>
    <g>
      <path class="cls-2" d="M9.11,6.46l-3.56-1.69v-.52l3.56-1.69v.78l-2.54,1.17,2.54,1.17v.78Z"/>
      <path class="cls-2" d="M19.17,9.32V0h2.69v.76h-1.83v7.81h1.83v.76h-2.69Z"/>
      <path class="cls-2" d="M29.09,0v9.32h-2.69v-.76h1.83V.76h-1.83v-.76h2.69Z"/>
      <path class="cls-2" d="M72.61,9.32V0h2.69v.76h-1.83v7.81h1.83v.76h-2.69Z"/>
      <path class="cls-2" d="M82.53,0v9.32h-2.69v-.76h1.83V.76h-1.83v-.76h2.69Z"/>
      <path class="cls-2" d="M101.52,6.46v-.78l2.54-1.17-2.54-1.17v-.78l3.56,1.69v.52l-3.56,1.69Z"/>
      <path class="cls-2" d="M0,17.92l2.08-5.77h.43L.43,17.92h-.43Z"/>
      <path class="cls-2" d="M3.59,14.98l-.31-.22.59-.79-.94-.3.11-.35.94.31v-.98s.37,0,.37,0v.98s.93-.31.93-.31l.11.35-.94.3.58.79-.3.22-.58-.8-.57.8Z"/>
      <path class="cls-2" d="M104.87,14.98l-.31-.22.59-.79-.94-.3.11-.35.94.31v-.98s.37,0,.37,0v.98s.93-.31.93-.31l.11.35-.94.3.58.79-.3.22-.58-.8-.57.8Z"/>
      <path class="cls-2" d="M107.24,17.92l2.08-5.77h.43l-2.08,5.77h-.43Z"/>
    </g>
  </g>
</svg>